<svg id="Layer_1" enable-background="new 0 0 511.999 511.999" height="512" viewBox="0 0 511.999 511.999" width="512" xmlns="http://www.w3.org/2000/svg"><g><g><path d="m428.492 149.959c-5.085-31.429-14.295-58.437-27.349-80.236-13.282-22.405-31.75-39.873-54.891-51.919-22.7-11.814-51.505-17.804-85.614-17.804-33.363 0-62.208 6.2-85.695 18.409-23.503 12.083-42.973 29.914-57.891 53.031-14.406 22.523-24.992 50.029-31.466 81.752-6.374 31.233-9.605 66.455-9.605 104.688 0 38.527 2.577 73.586 7.658 104.2 5.198 31.317 14.489 58.312 27.593 80.195 13.297 22.43 31.673 39.894 54.618 51.906 22.582 11.822 51.352 17.816 85.51 17.816 33.611 0 62.583-6.2 86.071-18.409 23.502-12.083 42.973-29.913 57.892-53.031 14.458-22.607 25.005-50.081 31.346-81.658 6.203-30.888 9.349-66.141 9.349-104.781 0-38.254-2.532-73.299-7.526-104.159zm-21.431 205.004c-5.852 29.137-15.469 54.31-28.564 74.785-12.972 20.101-29.865 35.596-50.249 46.075-20.65 10.733-46.519 16.176-76.887 16.176-30.895 0-56.544-5.227-76.234-15.535-19.606-10.265-35.315-25.198-46.713-44.425-11.833-19.761-20.259-44.399-25.044-73.233-4.902-29.535-7.388-63.491-7.388-100.925 0-36.893 3.096-70.77 9.202-100.689 5.98-29.305 15.642-54.53 28.696-74.94 12.971-20.1 29.864-35.595 50.249-46.075 20.648-10.735 46.39-16.177 76.509-16.177 30.862 0 56.56 5.23 76.38 15.545 19.782 10.297 35.568 25.228 46.943 44.415 11.769 19.653 20.109 44.279 24.788 73.194 4.823 29.807 7.269 63.776 7.269 100.965 0 37.32-3.014 71.249-8.957 100.844z"/><path d="m331.262 152.642c-.007-.037-.015-.075-.022-.112-2.734-13.148-6.184-24.63-10.254-34.127-4.365-10.184-9.816-18.379-16.205-24.36-6.453-6.278-13.93-10.838-22.225-13.553-.053-.018-.105-.034-.158-.051-7.957-2.458-16.67-3.705-25.897-3.705-16.484 0-30.564 4.14-41.918 12.355-11.025 8.125-19.502 19.834-25.932 35.838-5.892 14.863-9.992 33.267-12.181 54.64-.948 8.742-1.71 18.206-2.267 28.13-.309 5.515 3.911 10.235 9.425 10.544 5.52.3 10.234-3.911 10.544-9.425.537-9.579 1.271-18.694 2.188-27.152 2.007-19.604 5.669-36.213 10.866-49.323 4.987-12.413 11.274-21.294 19.151-27.099 7.802-5.646 17.937-8.508 30.123-8.508 7.191 0 13.889.938 19.911 2.789 5.439 1.793 10.176 4.708 14.478 8.909.056.055.112.108.169.161 4.378 4.081 8.262 10.032 11.544 17.688 3.54 8.26 6.583 18.442 9.044 30.264 2.422 12.373 4.263 27.094 5.471 43.76 1.23 16.858 1.854 36.651 1.854 58.829 0 19.36-.405 35.824-1.238 50.337-.845 14.843-2.434 28.357-4.737 40.245-2.139 11.521-4.986 21.713-8.463 30.291-.02.05-.04.101-.06.15-3.077 7.957-7.058 14.7-11.835 20.043-4.845 5.149-10.024 8.801-15.832 11.163-.045.018-.09.036-.135.056-6.022 2.553-13.272 3.847-21.55 3.847-11.153 0-20.308-2.148-27.937-6.537-7.241-4.225-13.369-11.918-18.197-22.833-5.368-12.252-9.413-29.118-12.019-50.083-1.33-11.148-2.337-23.95-2.994-38.049-.257-5.517-4.934-9.781-10.454-9.524-5.517.257-9.781 4.938-9.524 10.454.679 14.578 1.726 27.864 3.119 39.537 2.891 23.255 7.324 41.471 13.568 55.724 6.581 14.877 15.471 25.66 26.476 32.08 10.646 6.126 23.419 9.231 37.963 9.231 10.944 0 20.797-1.818 29.286-5.403 8.424-3.438 16.127-8.842 22.897-16.063.049-.053.098-.105.146-.159 6.418-7.148 11.683-15.962 15.649-26.195 3.967-9.806 7.185-21.271 9.547-34.001 2.459-12.688 4.16-27.102 5.055-42.832.855-14.894 1.271-31.732 1.271-51.479 0-22.661-.642-42.943-1.907-60.279-1.286-17.737-3.184-32.853-5.804-46.213z"/><path d="m183.027 263.241c5.523 0 10-4.478 10-10s-4.477-10-10-10h-.007c-5.523 0-9.996 4.478-9.996 10s4.48 10 10.003 10z"/></g></g></svg>