<svg id="Layer_1" enable-background="new 0 0 512 512" height="512" viewBox="0 0 512 512" width="512" xmlns="http://www.w3.org/2000/svg"><g><g><path d="m283.376 85.599h-.771c-3.586 0-6.897 1.92-8.679 5.032l-41.648 72.76c-2.744 4.793-1.082 10.903 3.711 13.646 4.793 2.746 10.903 1.083 13.646-3.711l23.741-41.476v177.385h-101.537l33.079-57.788c2.744-4.793 1.083-10.903-3.711-13.646-4.792-2.745-10.903-1.082-13.646 3.711l-41.646 72.756c-1.771 3.095-1.761 6.898.028 9.983s5.085 4.984 8.651 4.984h128.784c5.523 0 10-4.478 10-10v-223.636c-.002-5.523-4.479-10-10.002-10z"/><path d="m441.524 324.25c-5.714-12.407-13.668-15.015-19.339-15.015h-33.185v-283.041c0-3.974-1.264-9.774-7.285-14.846-.144-.122-.292-.239-.442-.353-3.891-2.917-9.114-5.176-15.527-6.714-6.023-1.565-13.735-2.664-23.563-3.357-8.727-.621-19.722-.924-33.616-.924-11.966 0-22.294.266-30.698.791-9.208.575-16.417 1.44-22.036 2.645-6.695 1.435-11.403 3.006-15.264 5.098-.053.028-.105.058-.158.087-4.557 2.576-7.963 5.745-10.125 9.42-.027.046-.054.092-.08.139l-151.276 266.82c-.033.059-.066.117-.098.176-2.59 4.791-4.879 9.698-6.805 14.586-.044.111-.085.223-.125.336-1.838 5.206-3.187 10.144-4.124 15.094-.967 5.108-1.667 10.92-2.081 17.273-.37 5.675-.535 12.337-.535 21.602 0 10.89.444 18.883 1.399 25.153 1.067 7.013 2.793 12.575 5.275 17.007.078.139.16.276.244.411 3.238 5.183 7.424 8.629 12.442 10.246 3.568 1.182 7.77 1.781 12.49 1.781h176.364v78.298c0 4.661 1.343 8.855 3.992 12.468 2.588 3.529 6.605 6.23 12.282 8.26.102.036.204.07.307.104 4.527 1.454 10.337 2.579 16.804 3.253 6.244.65 13.843.953 23.914.953 10.553 0 18.322-.304 24.45-.955 6.118-.651 11.701-1.726 16.595-3.192.131-.04.261-.081.39-.126 5.808-2.004 9.903-4.661 12.509-8.115 2.868-3.653 4.382-8.022 4.382-12.648v-78.298h33.185c5.1 0 14.469-2.127 19.973-16.361 3.149-7.846 4.68-18.631 4.68-32.968-.002-16.317-1.69-27.47-5.315-35.088zm-17.944 60.646c-.021.051-.041.103-.061.154-.837 2.177-1.565 3.197-1.929 3.615h-42.59c-5.523 0-10 4.478-10 10v88.298c0 .088-.007.137-.007.14-.006.015-.039.074-.115.169-.021.026-.043.054-.064.08-.243.177-1.067.707-3.041 1.403-3.669 1.083-7.962 1.891-12.765 2.401-5.334.568-12.64.844-22.334.844-9.234 0-16.378-.276-21.841-.846-4.96-.517-9.426-1.351-12.604-2.353-1.737-.633-2.521-1.125-2.799-1.326-.029-.09-.053-.238-.053-.513v-88.298c0-5.522-4.477-10-10-10h-186.365c-3.226 0-5.162-.42-6.218-.772-.044-.015-.088-.029-.133-.043-.2-.063-.755-.482-1.49-1.607-.862-1.614-2.015-4.632-2.837-10.032-.788-5.178-1.171-12.421-1.171-22.144 0-8.694.157-15.145.493-20.3.361-5.546.958-10.544 1.774-14.856.736-3.889 1.807-7.812 3.272-11.986 1.607-4.06 3.517-8.146 5.678-12.151l151.162-266.62c.113-.175.701-.973 2.629-2.075 2.061-1.098 5.284-2.107 9.853-3.086 4.64-.995 10.884-1.728 19.091-2.24 7.991-.499 17.9-.752 29.452-.752 13.414 0 23.944.286 32.199.875 8.525.601 15.261 1.537 20.021 2.783.072.02.145.037.217.055 4.639 1.104 7.009 2.417 7.996 3.09v292.433c0 5.522 4.477 10 10 10h42.321c.399.441 1.143 1.431 2.056 3.421.023.052.048.104.072.154 1.545 3.226 3.388 10.446 3.388 26.525 0 11.607-1.096 20.207-3.257 25.56z"/><path d="m218.599 217.417c5.523 0 10-4.478 10-10s-4.477-10-10-10h-.007c-5.523 0-9.996 4.478-9.996 10s4.48 10 10.003 10z"/></g></g></svg>