<svg id="Layer_1" enable-background="new 0 0 512 512" height="512" viewBox="0 0 512 512" width="512" xmlns="http://www.w3.org/2000/svg"><g><g><path d="m412.792 271.567c-7.864-19.04-19.43-35.161-34.344-47.886-14.705-12.661-33.182-22.388-54.901-28.903-21.12-6.376-45.562-9.608-72.647-9.608-9.545 0-18.742.13-27.331.386-5.215.154-10.471.445-15.721.87v-82.258h162.162c5.392 0 15.239-2.143 20.677-16.469 3.113-7.907 4.626-19.725 4.626-36.125 0-8.428-.306-14.922-.959-20.411-.729-6.27-1.954-11.394-3.746-15.659-1.934-4.793-4.79-8.678-8.265-11.241-3.738-2.789-8.001-4.263-12.334-4.263h-229.039c-11.265 0-19.973 3.286-25.881 9.767-.037.04-.073.08-.109.121-5.545 6.284-8.24 15.457-8.24 28.041v209.782c0 12.46 2.27 20.896 7.125 26.528 5.032 5.872 12.779 8.85 23.024 8.85 10.479 0 22.159-.753 34.714-2.237.04-.005.08-.01.119-.015 11.248-1.467 24.071-2.211 38.112-2.211 17.04 0 31.799 1.53 43.872 4.549 1.072.267 2.124.548 3.158.842 5.311 1.508 10.843-1.572 12.354-6.885 1.51-5.313-1.573-10.844-6.885-12.354-1.24-.353-2.501-.688-3.78-1.008-13.653-3.414-30.044-5.145-48.718-5.145-14.877 0-28.547.798-40.634 2.37-11.758 1.389-22.629 2.093-32.312 2.093-4.602 0-7.066-.963-7.857-1.886-.234-.272-2.292-2.964-2.292-13.492v-209.781c0-9.883 2.188-13.579 3.187-14.75 1.976-2.109 5.69-3.179 11.043-3.179h228.932c.075.032.254.122.56.352.222.175.943.997 1.613 2.672.024.062.049.122.075.183 1.046 2.474 1.833 5.928 2.34 10.294.553 4.648.822 10.561.822 18.074 0 17.054-1.767 25.093-3.25 28.835-.02.051-.04.102-.059.153-.941 2.494-1.776 3.379-2.03 3.605h-172.126c-5.523 0-10 4.478-10 10v103.297c0 2.855 1.221 5.575 3.354 7.473s4.979 2.791 7.813 2.459c8.343-.98 16.802-1.603 25.146-1.85 8.395-.25 17.391-.377 26.738-.377 25.126 0 47.623 2.945 66.884 8.76 19.03 5.709 35.05 14.089 47.649 24.938 12.692 10.829 22.137 24.023 28.884 40.359 6.684 16.063 10.073 35.323 10.073 57.244 0 24.526-4.305 46.725-12.795 65.977-8.376 18.993-20.44 35.298-35.823 48.433-15.423 13.05-34.368 23.273-56.292 30.381-22.104 7.125-47.159 10.738-74.467 10.738-14.761 0-28.616-.91-41.193-2.707-12.519-1.771-24.306-4.094-35.033-6.9-11.057-3.028-19.023-5.638-25.002-8.185-8.021-3.48-10.062-4.862-10.531-5.263-.073-.068-.148-.137-.224-.203-1.04-.917-1.775-1.833-2.246-2.795-.637-1.465-1.201-3.396-1.707-5.825-.49-2.45-.849-5.864-1.096-10.438-.244-4.509-.368-9.991-.368-16.294 0-6.596.239-12.207.71-16.681.542-5.154 1.272-7.813 1.79-9.134.017-.044.034-.089.051-.133.244-.65.455-1.138.626-1.496 1.027.363 2.818 1.125 5.558 2.701.054.031.109.062.165.092 5.58 3.069 12.689 6.403 21.183 9.932 9.047 3.7 19.801 7.035 31.888 9.895 12.534 3.066 27.793 4.622 45.354 4.622 15.066 0 29.175-1.601 41.935-4.757.032-.008.065-.016.097-.024 13.398-3.457 24.469-8.783 33.904-16.331 9.514-7.729 16.862-17.345 21.82-28.536 5.066-11.29 7.635-24.724 7.635-39.929 0-.642-.005-1.279-.016-1.915-.088-5.522-4.684-9.932-10.158-9.84-5.522.088-9.927 4.636-9.839 10.158.008.53.013 1.063.013 1.597 0 12.363-1.979 23.043-5.902 31.784-3.738 8.438-9.025 15.357-16.105 21.11-7.114 5.69-15.717 9.787-26.301 12.523-11.177 2.76-23.653 4.159-37.082 4.159-15.96 0-29.62-1.362-40.674-4.067-11.153-2.639-20.909-5.653-28.945-8.94-7.733-3.212-14.155-6.214-19.09-8.923-6.682-3.83-11.846-5.615-16.246-5.615-4.414 0-8.419 1.454-11.613 4.21-2.875 2.294-5.08 5.649-6.909 10.507-1.429 3.679-2.392 8.212-3.027 14.257-.552 5.237-.82 11.379-.82 18.774 0 6.662.133 12.508.397 17.373.303 5.616.766 9.836 1.471 13.358.839 4.03 1.816 7.228 3.076 10.06.029.065.059.131.089.195 1.612 3.426 3.983 6.544 7.047 9.27 2.852 2.628 7.258 5.059 16.192 8.936 6.903 2.94 15.698 5.837 27.675 9.116.036.01.071.019.107.028 11.484 3.008 24.051 5.487 37.337 7.367 13.496 1.929 28.303 2.907 44.007 2.907 29.395 0 56.514-3.938 80.621-11.709 24.425-7.918 45.641-19.405 63.092-34.172 17.72-15.131 31.571-33.837 41.169-55.602 9.619-21.812 14.496-46.724 14.496-74.047 0-24.571-3.906-46.415-11.597-64.903z"/><path d="m307.469 298.72c0-5.522-4.477-10-10-10h-.007c-5.523 0-9.996 4.478-9.996 10s4.48 10 10.003 10 10-4.478 10-10z"/></g></g></svg>