<svg id="Layer_1" enable-background="new 0 0 512 512" height="512" viewBox="0 0 512 512" width="512" xmlns="http://www.w3.org/2000/svg"><g><g><path d="m324.326 362.89c-5.373-1.274-10.762 2.055-12.033 7.43-.327 1.382-.688 2.775-1.075 4.142-2.699 9.089-6.399 16.691-11.357 23.303-4.636 6.285-10.362 11.026-17.561 14.52-7.06 3.478-15.528 5.24-25.172 5.24-9.976 0-18.698-1.805-25.973-5.39-6.962-3.382-12.675-9.177-17.49-17.76-5.029-8.854-9.026-21.729-11.87-38.196-2.616-15.808-4.037-35.37-4.231-58.217 3.655-2.243 7.363-4.328 11.074-6.223 5.451-2.783 11.213-5.254 17.128-7.346 6.339-2.108 12.359-3.663 17.895-4.621.05-.009.1-.018.15-.027 6.004-1.133 12.214-1.707 18.457-1.707 10.12 0 18.754 1.393 25.666 4.141 5.61 2.38 10.269 5.654 13.847 9.733 3.644 4.152 9.96 4.565 14.112.923 4.151-3.642 4.564-9.96.923-14.112-5.606-6.392-12.737-11.44-21.195-15.009-.058-.024-.115-.048-.173-.071-9.43-3.771-20.283-5.604-33.18-5.604-7.458 0-14.89.687-22.091 2.04-6.613 1.148-13.423 2.904-20.816 5.368-.056.019-.111.038-.167.058-6.777 2.392-13.389 5.226-19.651 8.423-5.905 3.015-11.793 6.449-17.502 10.209-2.81 1.85-4.5 4.988-4.5 8.352 0 26.298 1.521 48.825 4.534 67.025 3.294 19.083 7.939 33.718 14.172 44.693 6.757 12.046 15.562 20.766 26.118 25.895 9.999 4.926 21.694 7.424 34.762 7.424 12.734 0 24.177-2.456 33.957-7.272 9.989-4.848 18.357-11.784 24.823-20.551 6.371-8.495 11.115-18.183 14.502-29.614.011-.037.022-.074.032-.111.473-1.666.915-3.365 1.313-5.052 1.273-5.377-2.053-10.765-7.428-12.036z"/><path d="m421.818 274.109c-5.541-18.784-14.362-35.012-26.188-48.195-11.87-13.37-27.347-23.808-45.999-31.023-18.145-7.02-40.113-10.578-65.296-10.578-11.624 0-22.484.85-32.279 2.524-9.841 1.684-19.19 3.792-27.787 6.266-.058.018-.116.034-.174.053-9.365 2.88-17.28 5.987-24.193 9.498-1.162.561-2.294 1.117-3.396 1.668.951-11.427 2.677-22.537 5.161-33.192 3.586-15.388 9.415-29.06 17.363-40.693 7.551-11.216 17.583-20.261 29.783-26.864 12.354-6.626 27.254-9.847 45.552-9.847 11.212 0 21.113.712 29.429 2.117.045.008.09.015.135.021 8.122 1.259 15.512 2.885 21.963 4.832.056.017.11.033.166.049 6.412 1.815 11.909 3.524 16.335 5.079 5.644 1.983 10.419 2.947 14.6 2.947 4.574 0 8.727-1.281 12.038-3.708 2.565-1.747 5.845-5.036 7.73-11.021 1.306-3.692 2.186-8.47 2.617-14.21.365-4.891.528-10.922.528-19.553 0-5.123-.131-9.457-.403-13.277-.324-4.37-.824-7.676-1.572-10.396-.831-3.143-1.843-5.885-3.092-8.383-.04-.08-.08-.159-.122-.237-1.614-3.024-3.813-5.754-6.537-8.114-2.897-2.51-7.373-4.864-14.082-7.405-6.307-2.515-13.756-4.654-22.144-6.361-8.066-1.735-16.959-3.176-27.185-4.403-9.408-1.131-19.258-1.703-29.274-1.703-30.541 0-57.353 4.173-79.641 12.385-22.295 8.084-41.769 19.397-57.914 33.659-16.008 14.274-29.175 30.882-39.149 49.388-9.844 18.394-17.593 37.963-23.035 58.18-5.33 19.919-9.016 40.643-10.956 61.596-1.858 20.072-2.8 40.04-2.8 59.35 0 22.509.899 44.066 2.667 64.013 1.657 20.144 4.881 39.296 9.587 56.943 4.696 17.479 11.127 33.564 19.151 47.872 8.381 14.699 19.146 27.243 31.996 37.282 13.065 10.206 28.497 18.071 45.867 23.375 17.296 5.28 37.726 7.958 60.721 7.958 28.176 0 53.685-4.502 75.839-13.39 22.04-8.896 40.886-21.416 56.015-37.214 15.046-15.711 26.663-34.694 34.529-56.424 7.717-21.32 11.63-44.866 11.63-69.981-.002-22.124-2.757-42.614-8.184-60.883zm-22.255 124.056c-6.911 19.093-17.062 35.713-30.168 49.398-13.155 13.737-29.66 24.672-49.036 32.492-19.755 7.926-42.758 11.945-68.372 11.945-21.014 0-39.479-2.385-54.88-7.087-15.015-4.585-28.269-11.316-39.394-20.007-10.787-8.428-19.849-19.002-26.899-31.365-7.177-12.8-12.979-27.341-17.24-43.199-4.396-16.482-7.415-34.453-8.98-53.476-1.721-19.424-2.594-40.388-2.594-62.31 0-18.696.914-38.044 2.715-57.506 1.836-19.832 5.322-39.438 10.357-58.255 5.043-18.732 12.227-36.876 21.338-53.9 8.853-16.426 20.575-31.204 34.806-43.893 14.219-12.561 31.531-22.592 51.503-29.833 20.117-7.411 44.602-11.169 72.776-11.169 9.223 0 18.271.524 26.894 1.559 9.631 1.156 17.944 2.501 25.416 4.11.039.009.077.017.116.024 7.274 1.478 13.612 3.287 18.839 5.378.06.023.119.047.18.069 6.457 2.439 8.079 3.79 8.145 3.846.842.729 1.476 1.486 1.934 2.313.614 1.255 1.12 2.677 1.59 4.461.012.043.023.087.036.131.387 1.395.695 3.611.914 6.56.235 3.314.351 7.184.351 11.828 0 8.005-.15 13.744-.473 18.059-.413 5.498-1.228 8.208-1.559 9.118-.061.167-.116.335-.168.505-.114.375-.221.63-.296.789-.657.078-3.101.063-8.389-1.795-4.796-1.686-10.662-3.512-17.436-5.431-7.301-2.198-15.554-4.02-24.531-5.414-9.397-1.582-20.396-2.385-32.69-2.385-21.68 0-39.672 3.998-55.039 12.24-15.104 8.175-27.514 19.379-36.848 33.244-9.312 13.631-16.139 29.571-20.289 47.38-4.076 17.486-6.273 36.049-6.529 55.174-.05 3.692 1.94 7.111 5.174 8.893 3.234 1.783 7.187 1.636 10.282-.379 4.711-3.068 10.458-6.226 17.567-9.653.065-.031.13-.063.194-.096 5.878-2.993 12.752-5.686 21.011-8.229 7.865-2.26 16.457-4.193 25.539-5.747 8.684-1.485 18.41-2.238 28.907-2.238 22.705 0 42.247 3.105 58.08 9.23 15.652 6.056 28.524 14.686 38.293 25.688 9.856 10.989 17.233 24.628 21.932 40.556 4.884 16.438 7.359 35.012 7.359 55.205-.001 22.785-3.513 44.041-10.438 63.172z"/><path d="m324.481 317.688h-.008c-5.522 0-9.996 4.478-9.996 10s4.481 10 10.004 10 10-4.478 10-10-4.477-10-10-10z"/></g></g></svg>