<svg xmlns="http://www.w3.org/2000/svg" enable-background="new 0 0 24 24" viewBox="0 0 24 24"><path fill="#343434" d="M19.6,3.6c-0.2-0.2-0.5-0.3-0.8-0.2c-2.2,0.5-4.4,0-6.2-1.3c-0.3-0.2-0.8-0.2-1.1,0C9.6,3.4,7.4,3.9,5.2,3.4C4.7,3.3,4.1,3.7,4,4.2c0,0.1,0,0.1,0,0.2v7.5c0,2.9,1.4,5.6,3.8,7.3l3.7,2.6c0.3,0.2,0.8,0.2,1.2,0l3.7-2.6c2.4-1.7,3.8-4.4,3.8-7.3V4.4C20,4.1,19.9,3.8,19.6,3.6z M15,11C15,11,15,11,15,11l-3.4,3.4c-0.4,0.4-1,0.4-1.4,0l0,0l-1.6-1.6c-0.4-0.4-0.4-1,0-1.4c0.4-0.4,1-0.4,1.4,0l0.9,0.9l2.7-2.7c0.4-0.4,1-0.4,1.4,0S15.4,10.6,15,11z"/></svg>