<svg xmlns="http://www.w3.org/2000/svg" enable-background="new 0 0 24 24" viewBox="0 0 24 24"><path fill="#6563ff" d="M20,8.4c-0.8,0-1.6-0.4-2.1-1.1l-2,9.8c-0.1,0.5-0.5,0.8-1,0.8c-0.1,0-0.1,0-0.2,0c-0.5-0.1-0.9-0.6-0.8-1.2l1.8-8.8H13v1c0,0.6-0.4,1-1,1s-1-0.4-1-1v-2c0-0.6,0.4-1,1-1h4.5c-1.1-0.8-1.3-2.4-0.5-3.5c0.1-0.2,0.3-0.4,0.5-0.5C10.9-0.5,4.4,2,1.9,7.5c-2.5,5.6,0,12.1,5.5,14.6c5.6,2.5,12.1,0,14.6-5.5c1.3-2.9,1.3-6.2,0-9.1C21.5,8.1,20.8,8.4,20,8.4z M9,16.9c0,0.6-0.4,1-1,1s-1-0.4-1-1v-10c0-0.6,0.4-1,1-1s1,0.4,1,1V16.9z M18,4.9h1v1c0,0.6,0.4,1,1,1s1-0.4,1-1v-1h1c0.6,0,1-0.4,1-1s-0.4-1-1-1h-1v-1c0-0.6-0.4-1-1-1s-1,0.4-1,1v1h-1c-0.6,0-1,0.4-1,1S17.4,4.9,18,4.9z"/></svg>