<svg xmlns="http://www.w3.org/2000/svg" enable-background="new 0 0 24 24" viewBox="0 0 24 24"><path fill="#6563ff" d="M18,4.9h1v1c0,0.6,0.4,1,1,1s1-0.4,1-1v-1h1c0.6,0,1-0.4,1-1s-0.4-1-1-1h-1v-1c0-0.6-0.4-1-1-1s-1,0.4-1,1v1h-1c-0.6,0-1,0.4-1,1S17.4,4.9,18,4.9z M20,8.4c-0.8,0-1.5-0.4-2-1v9.5c0,0.6-0.4,1-1,1s-1-0.4-1-1v-10c0-0.4,0.2-0.8,0.6-0.9c-1.1-0.7-1.5-2.3-0.7-3.4c0.2-0.2,0.4-0.4,0.6-0.6C10.9-0.5,4.4,2,1.9,7.5c-2.5,5.6,0,12.1,5.5,14.6s12.1,0,14.6-5.5c1.3-2.9,1.3-6.2,0-9.1C21.5,8.1,20.8,8.4,20,8.4z M14,9.9c0,1.7-1.3,3-3,3h-1c-0.6,0-1,0.4-1,1v2h4c0.6,0,1,0.4,1,1s-0.4,1-1,1H8c-0.6,0-1-0.4-1-1v-3c0-1.7,1.3-3,3-3h1c0.6,0,1-0.4,1-1v-1c0-0.6-0.4-1-1-1h-1c-0.6,0-1,0.4-1,1c0,0.6-0.4,1-1,1s-1-0.4-1-1c0-1.7,1.3-3,3-3h1c1.7,0,3,1.3,3,3V9.9z"/></svg>