<svg xmlns="http://www.w3.org/2000/svg" enable-background="new 0 0 24 24" viewBox="0 0 24 24"><path fill="#6563ff" d="M20,8.4c-1.2,0-2.2-0.9-2.5-2c-1.4-0.2-2.2-1.5-2-2.9C15.7,2.9,16,2.3,16.5,2C10.9-0.5,4.4,2,1.9,7.5c-2.5,5.6,0,12.1,5.5,14.6c5.6,2.5,12.1,0,14.6-5.5c1.3-2.9,1.3-6.2,0-9.1C21.5,8.1,20.8,8.4,20,8.4z M12.5,10.9c1.7,0,3,1.3,3,3v1c0,1.7-1.3,3-3,3h-1c-1.7,0-3-1.3-3-3v-6c0-1.7,1.3-3,3-3h1c1.7,0,3,1.3,3,3c0,0.6-0.4,1-1,1s-1-0.4-1-1c0-0.6-0.4-1-1-1h-1c-0.6,0-1,0.4-1,1v2H12.5z M18,4.9h1v1c0,0.6,0.4,1,1,1s1-0.4,1-1v-1h1c0.6,0,1-0.4,1-1s-0.4-1-1-1h-1v-1c0-0.6-0.4-1-1-1s-1,0.4-1,1v1h-1c-0.6,0-1,0.4-1,1S17.4,4.9,18,4.9z M10.5,14.9c0,0.6,0.4,1,1,1h1c0.6,0,1-0.4,1-1v-1c0-0.6-0.4-1-1-1h-2V14.9z"/></svg>