<svg id="Layer_1" enable-background="new 0 0 511.999 511.999" height="512" viewBox="0 0 511.999 511.999" width="512" xmlns="http://www.w3.org/2000/svg"><g><g><path d="m416.64 311.263c-5.305-13.463-13.065-25.707-23.066-36.393-9.952-10.634-22.244-19.545-36.5-26.469-5.129-2.517-10.455-4.705-16.019-6.577 3.122-1.638 6.131-3.393 9.022-5.264 11.843-7.663 21.688-16.959 29.264-27.629 7.782-10.663 13.725-22.954 17.655-36.509 3.929-13.41 5.921-27.939 5.921-43.185 0-19.848-3.427-38.066-10.168-54.114-6.693-16.116-16.87-30.011-30.284-41.329-13.139-10.972-29.374-19.453-48.273-25.217-18.798-5.691-40.317-8.577-63.96-8.577-18.213 0-35.367 1.584-51.064 4.723-16.195 3.375-29.733 7.17-41.422 11.616-11.906 4.579-22.062 9.399-30.246 14.363-8.909 5.494-13.742 8.874-16.684 11.667-.063.06-.125.12-.186.182-3.479 3.48-5.569 6.077-6.963 8.656-1.409 2.526-2.556 5.415-3.604 9.079-.012.04-.022.08-.034.12-.94 3.452-1.541 7.431-1.837 12.181-.266 4.373-.395 9.575-.395 15.902 0 7.783.264 14.073.81 19.253.556 5.148 1.443 9.486 2.637 12.893.048.135.098.27.151.402 1.792 4.484 4.428 7.795 7.837 9.841 2.904 1.804 6.343 2.718 10.225 2.718 5.004 0 10.705-2.212 19.062-7.394 6.234-3.864 13.635-8.034 21.997-12.395 8.484-4.299 18.176-8.275 28.902-11.852 10.202-3.515 20.867-5.223 32.603-5.223 10.127 0 18.806 1.343 25.798 3.991.041.016.083.031.124.046 3.203 1.165 6.182 2.568 8.854 4.172 4.737 2.843 10.878 1.305 13.72-3.431 2.841-4.736 1.306-10.879-3.431-13.72-3.749-2.249-7.869-4.198-12.248-5.795-9.378-3.542-20.114-5.264-32.817-5.264-13.794 0-26.955 2.124-39.021 6.28-11.584 3.862-22.208 8.229-31.578 12.981-.033.018-.065.034-.099.051-8.821 4.598-16.674 9.024-23.343 13.158-4.57 2.834-6.974 3.85-8.058 4.211-.405-1.326-.993-3.78-1.427-7.794-.463-4.39-.697-10.153-.697-17.132 0-5.919.117-10.725.356-14.675.205-3.283.594-6.006 1.156-8.092.598-2.079 1.217-3.695 1.841-4.804.037-.065.073-.132.109-.199.136-.255.781-1.286 3.409-3.925 1.804-1.677 6.285-4.727 13.265-9.031 7.107-4.312 16.188-8.604 26.956-12.744 10.658-4.055 23.204-7.561 38.277-10.701 14.332-2.862 30.166-4.315 47.065-4.315 21.678 0 41.246 2.598 58.145 7.715 16.31 4.973 30.194 12.184 41.23 21.398 10.913 9.209 19.214 20.541 24.688 33.72 5.803 13.812 8.623 28.99 8.623 46.405 0 13.341-1.721 25.979-5.122 37.588-3.294 11.358-8.22 21.573-14.643 30.361-.028.039-.057.078-.085.117-6.192 8.736-13.996 16.084-23.855 22.465-9.663 6.252-21.033 10.997-33.793 14.101-4.482 1.091-7.637 5.104-7.637 9.717v1.128c0 5.061 3.781 9.324 8.806 9.929 15.869 1.908 29.501 5.74 41.712 11.73 12.079 5.867 22.398 13.323 30.671 22.163 8.388 8.961 14.623 18.793 19.074 30.089 4.438 11.154 6.688 23.283 6.688 36.05 0 22.08-4.209 41.812-12.485 58.595-8.513 17.025-20.292 31.385-35.01 42.68-15.196 11.662-33.576 20.676-54.563 26.773-21.724 6.154-45.653 9.275-71.125 9.275-15.677 0-30.437-1.136-43.856-3.372-14.091-2.369-25.935-5.128-36.209-8.435-.033-.011-.066-.021-.1-.031-9.876-3.064-18.376-6.456-25.321-10.111-6.589-3.412-10.487-5.887-11.998-7.108-1.125-1.02-1.863-1.975-2.371-3.065-.875-2.099-1.7-4.555-2.367-7.029-.729-2.81-1.263-6.435-1.59-10.794-.322-4.193-.473-9.688-.473-17.289 0-13.598 1.415-18.728 2.072-20.373.085-.186.164-.343.237-.476 1.151.385 3.434 1.301 7.378 3.438 6.313 3.42 14.372 7.123 23.95 11.006 9.637 3.907 21.065 7.589 33.966 10.942 13.3 3.459 28.489 5.213 45.146 5.213 14.248 0 27.21-1.749 38.524-5.199 11.225-3.422 21.164-8.454 29.544-14.955.051-.039.101-.079.15-.119 8.386-6.767 14.787-15.018 19.027-24.521.018-.039.034-.078.052-.118 4.035-9.367 6.081-19.853 6.081-31.164 0-12.427-2.489-23.853-7.399-33.96-.017-.033-.033-.067-.051-.102-5.187-10.377-12.66-19.136-22.212-26.034-9.302-6.927-21.196-12.319-35.329-16.023-13.719-3.632-29.851-5.474-47.947-5.474h-41.125c-1.83 0-3.25-.158-4.229-.47-.108-.111-.331-.374-.618-.89-.442-.867-1.446-3.232-2.04-7.75-.533-4.053-.793-9.654-.793-17.126 0-7.01.256-12.261.783-16.053.633-4.56 1.506-6.336 1.758-6.772.103-.176.199-.355.29-.537.151-.304.28-.484.354-.577.77-.354 1.889-.541 3.24-.541h41.376c15.214 0 28.843-1.832 40.512-5.444 12.026-3.561 22.502-8.941 31.202-16.047 7.288-6.053 13.177-13.274 17.5-21.462 2.579-4.884.711-10.934-4.173-13.513-4.886-2.578-10.935-.71-13.513 4.173-3.138 5.941-7.257 10.984-12.529 15.363-6.674 5.45-14.595 9.48-24.218 12.324-.044.013-.088.025-.132.039-9.761 3.03-21.419 4.566-34.649 4.566h-41.376c-4.304 0-8.227.808-11.663 2.401-4.075 1.82-7.416 5.1-9.684 9.502-1.961 3.495-3.305 8.005-4.106 13.772-.663 4.779-.973 10.755-.973 18.805 0 8.469.306 14.74.963 19.735.758 5.758 2.169 10.635 4.192 14.497.025.048.051.096.077.144 2.544 4.667 6.171 8.074 10.489 9.853.061.024.121.049.183.072 3.392 1.32 7.134 1.935 11.775 1.935h41.125c16.37 0 30.779 1.617 42.853 4.814 11.689 3.063 21.287 7.356 28.526 12.759.045.034.09.067.136.1 7.016 5.055 12.269 11.188 16.059 18.749 3.61 7.452 5.365 15.686 5.365 25.171 0 8.551-1.489 16.354-4.425 23.194-2.968 6.627-7.293 12.185-13.221 16.984-6.437 4.978-14.188 8.869-23.041 11.568-9.424 2.873-20.423 4.33-32.692 4.33-14.96 0-28.456-1.537-40.114-4.569-12.06-3.135-22.651-6.54-31.483-10.121-8.895-3.604-16.275-6.988-21.938-10.057-7.783-4.217-13.158-6.097-17.428-6.097-7.874 0-14.449 4.632-18.04 12.707-.032.071-.063.145-.094.217-2.458 5.899-3.652 15.114-3.652 28.17 0 8.126.169 14.106.53 18.804.42 5.605 1.131 10.283 2.196 14.391.948 3.521 2.066 6.819 3.323 9.806.031.074.064.149.098.224 1.693 3.764 4.145 7.04 7.491 10.016.079.07.159.139.239.206 3.063 2.553 8.353 5.783 15.664 9.57 7.958 4.188 17.582 8.047 28.604 11.469 11.19 3.598 23.937 6.575 38.979 9.104 14.518 2.42 30.384 3.646 47.159 3.646 27.315 0 53.079-3.376 76.641-10.051 23.448-6.813 44.047-16.949 61.224-30.131 17.143-13.155 30.843-29.844 40.747-49.651 9.67-19.608 14.572-42.315 14.572-67.49.003-15.312-2.725-29.928-8.091-43.414z"/><path d="m296.604 134.013c0-5.522-4.478-10-10-10h-.008c-5.522 0-9.996 4.478-9.996 10s4.481 10 10.004 10 10-4.478 10-10z"/></g></g></svg>