<svg id="Layer_1" enable-background="new 0 0 512 512" height="512" viewBox="0 0 512 512" width="512" xmlns="http://www.w3.org/2000/svg"><g><g><path d="m430 28.409c-1.136-6.976-2.8-12.17-5.236-16.347-.031-.054-.063-.106-.096-.159-3.146-5.168-7.489-8.597-12.913-10.193-3.855-1.167-8.378-1.71-14.224-1.71h-291.069c-4.636 0-9.015 1.519-12.678 4.393-4.302 3.242-6.666 8.189-8.077 11.649-1.669 4.101-2.934 9.265-3.86 15.753-.841 5.744-1.268 12.749-1.268 20.819 0 16.785 1.482 28.43 4.667 36.643 5.521 14.569 15.66 16.747 21.216 16.747h190.221l-61.485 136.111c-2.273 5.033-.037 10.957 4.996 13.23 5.035 2.272 10.957.036 13.23-4.996l67.862-150.229c1.398-3.095 1.13-6.688-.712-9.541s-5.006-4.576-8.401-4.576h-205.711c-.156 0-.221-.018-.222-.018-.216-.097-1.24-1.031-2.303-3.845-.012-.031-.023-.063-.035-.094-1.517-3.897-3.323-12.168-3.323-29.434 0-7.004.365-13.201 1.062-17.957.688-4.815 1.559-8.541 2.589-11.068.932-2.287 1.553-3.12 1.716-3.317.059-.045.117-.09.175-.136.122-.098.182-.124.182-.124.002 0 .049-.012.16-.012h291.068c3.737 0 6.58.289 8.45.858.038.012.077.023.115.034.315.092.745.217 1.438 1.329.774 1.359 1.859 4.083 2.726 9.4.781 4.804 1.161 11.417 1.161 20.218 0 6.964-.246 13.075-.73 18.165-.53 5.577-1.161 10.204-1.928 14.148-.852 4.38-1.886 8.163-3.162 11.566-.032.087-.063.175-.094.263-1.253 3.646-2.894 7.805-5.021 12.724l-160.944 373.642c-1.199 2.448-2.354 3.718-3.157 4.388-.858.723-2.641 1.792-6.262 2.779-3.503.955-8.466 1.644-14.344 1.988-5.908.341-13.604.5-24.218.5-13.416 0-23.435-.401-30.608-1.224-8.937-1.043-12.496-2.546-13.611-3.144-.083-.045-.166-.088-.251-.13-.093-.047-.178-.091-.257-.134.141-.926.532-2.398 1.556-4.508.039-.081.078-.164.115-.246l67.86-150.226c2.273-5.033.037-10.957-4.996-13.23-5.036-2.273-10.957-.036-13.23 4.996l-67.809 150.11c-2.703 5.618-3.88 10.919-3.499 15.763.23 3.826 2.032 10.669 11.193 15.302 4.744 2.509 11.489 4.247 20.63 5.313 7.959.913 18.723 1.356 32.907 1.356 11.159 0 18.983-.164 25.38-.534 7.353-.432 13.558-1.326 18.444-2.659 5.809-1.584 10.35-3.801 13.843-6.743 3.354-2.795 6.189-6.574 8.425-11.232.06-.122.116-.246.17-.371l161.024-373.828c2.304-5.328 4.113-9.916 5.528-14.022 1.648-4.42 2.963-9.211 4.019-14.64.892-4.585 1.613-9.843 2.205-16.07.552-5.796.82-12.357.82-20.06.001-10.025-.45-17.47-1.419-23.43z"/><path d="m225.783 297.251c5.522 0 10-4.478 10-10s-4.478-10-10-10h-.008c-5.522 0-9.996 4.478-9.996 10s4.481 10 10.004 10z"/></g></g></svg>