<svg id="Layer_1" enable-background="new 0 0 512 512" height="512" viewBox="0 0 512 512" width="512" xmlns="http://www.w3.org/2000/svg"><g><g><path d="m225.781 199.768c7.996 5.292 17.863 11.125 31.053 18.359 1.499.821 3.154 1.231 4.809 1.231 1.762 0 3.523-.466 5.092-1.393 19.235-11.379 33.615-23.181 43.928-36.039 11.049-13.631 16.65-29.206 16.65-46.293 0-9.436-1.408-18.296-4.185-26.336-.024-.069-.049-.14-.075-.209-3.149-8.503-7.928-15.692-14.202-21.369-6.118-5.536-13.865-9.866-23.027-12.87-.048-.016-.095-.031-.143-.046-8.711-2.713-18.865-4.088-30.182-4.088-22.963 0-40.662 5.677-52.604 16.873-12.081 11.326-18.206 26.9-18.206 46.289 0 9.169 1.538 17.648 4.571 25.203 2.948 7.767 7.605 15.097 13.845 21.792 5.686 6.344 13.314 12.7 22.676 18.896zm-9.207-97.588c8.113-7.607 21.21-11.464 38.925-11.464 9.265 0 17.394 1.063 24.162 3.161 6.541 2.153 11.7 4.99 15.771 8.674 3.895 3.522 6.782 7.9 8.828 13.383 2.025 5.907 3.053 12.535 3.053 19.7 0 12.559-3.986 23.581-12.22 33.739-7.836 9.771-19.155 19.318-33.69 28.426-10.195-5.687-18.094-10.415-24.584-14.709-7.974-5.277-14.324-10.535-18.876-15.628-.05-.056-.1-.11-.15-.164-4.513-4.828-7.83-10.005-9.86-15.385-.027-.072-.056-.144-.084-.214-2.097-5.191-3.159-11.188-3.159-17.821-.002-13.831 3.886-24.2 11.884-31.698z"/><path d="m427.124 325.255c-4.507-12.193-11.267-24.039-20.138-35.266-8.775-10.936-19.413-21.092-31.617-30.186-7.759-5.921-16.499-11.738-26.105-17.382 7.49-4.952 14.478-10.219 20.899-15.759 10.775-9.428 19.579-19.068 26.915-29.472 7.188-10.194 13.008-21.466 17.296-33.501.012-.032.022-.064.034-.097 4.106-11.908 6.188-24.311 6.188-36.862 0-18.594-3.155-35.841-9.378-51.263-6.32-15.662-16.185-29.352-29.359-40.724-13.093-11.183-29.829-19.902-49.763-25.923-19.789-5.934-42.835-8.82-70.453-8.82-27.757 0-51.554 3.136-72.766 9.592-21.215 6.496-39.283 16.009-53.698 28.269-14.561 12.363-25.601 27.189-32.787 44.004-7.291 16.741-10.987 35.549-10.987 55.9 0 14.058 2.019 27.449 5.998 39.804 3.943 12.237 9.908 23.66 17.692 33.902 7.617 10.157 16.875 19.557 27.457 27.889 6.172 4.938 12.848 9.681 19.958 14.183-9.737 5.753-18.734 11.708-26.886 17.8-12.734 9.619-23.36 19.856-31.534 30.367-8.459 10.707-15.072 22.825-19.686 36.108-4.341 12.889-6.542 26.744-6.542 41.183 0 21.235 3.756 40.336 11.165 56.771 7.584 16.822 18.99 31.108 33.938 42.489 14.764 11.141 33.138 19.68 54.614 25.381 20.897 5.547 45.595 8.358 73.406 8.358 28.946 0 54.951-3.161 77.291-9.396 22.98-6.413 42.447-15.931 57.815-28.253 15.726-12.471 27.847-28.125 36.04-46.561 7.967-18.093 12.006-38.812 12.006-61.58.001-14.581-2.359-28.361-7.013-40.955zm-23.282 94.445c-6.854 15.422-17.008 28.537-30.22 39.015-13.291 10.657-30.356 18.942-50.723 24.626-20.589 5.746-44.784 8.659-71.914 8.659-26.081 0-49.052-2.587-68.274-7.688-18.963-5.034-35.011-12.441-47.665-21.989-12.235-9.316-21.584-21.016-27.786-34.771-6.235-13.834-9.397-30.169-9.397-48.552 0-12.264 1.849-23.972 5.465-34.709 3.902-11.234 9.285-21.107 16.503-30.244 7.145-9.186 16.514-18.185 27.808-26.716 11.44-8.55 24.793-16.876 39.687-24.747 3.263-1.724 5.311-5.105 5.327-8.796s-2.001-7.091-5.248-8.844c-11.954-6.455-22.841-13.589-32.418-21.25-9.408-7.408-17.223-15.332-23.929-24.274-6.543-8.608-11.324-17.763-14.617-27.984-3.341-10.37-5.035-21.698-5.035-33.671 0-17.587 3.137-33.708 9.351-47.978 5.984-14.001 15.192-26.342 27.375-36.687 12.332-10.487 28.011-18.692 46.586-24.381 19.013-5.786 41.53-8.72 66.927-8.72 25.287 0 47.058 2.685 64.689 7.974 17.251 5.21 31.563 12.604 42.498 21.945 10.703 9.238 18.725 20.353 23.842 33.034 5.259 13.032 7.925 27.762 7.925 43.778 0 10.455-1.661 20.364-5.079 30.291-3.677 10.309-8.651 19.945-14.785 28.644-6.409 9.09-14.174 17.576-23.686 25.899-9.475 8.172-20.435 15.755-32.576 22.54-3.209 1.793-5.175 5.201-5.121 8.876s2.119 7.024 5.379 8.722c14.777 7.699 27.747 15.784 38.549 24.031.032.024.063.049.096.072 10.864 8.09 20.289 17.072 27.968 26.642 7.519 9.516 13.246 19.521 17.023 29.74 3.885 10.513 5.773 21.642 5.773 34.022-.002 19.978-3.471 37.985-10.298 53.491z"/><path d="m316.802 319.837c-7.221-7.357-16.121-14.275-26.456-20.561-10.325-6.482-22.151-12.938-35.153-19.188-2.87-1.38-6.229-1.31-9.038.188-11.694 6.236-22.095 12.617-30.914 18.968-9.033 6.292-16.867 13.314-23.344 20.943-6.548 7.856-11.237 15.767-14.335 24.179-3.259 8.396-4.91 17.642-4.91 27.486 0 22.171 7.493 39.469 22.271 51.411 3.928 3.173 8.405 5.947 13.309 8.244 1.372.643 2.814.947 4.235.946 3.76 0 7.362-2.131 9.063-5.76 2.343-5.002.188-10.955-4.813-13.298-3.445-1.614-6.548-3.528-9.223-5.689-9.987-8.07-14.842-19.799-14.842-35.854 0-7.386 1.205-14.222 3.581-20.316.024-.063.048-.126.071-.189 2.294-6.257 5.878-12.261 10.897-18.284 5.315-6.261 11.886-12.131 19.528-17.447.045-.031.091-.063.136-.096 6.988-5.036 15.125-10.129 24.238-15.172 10.549 5.229 20.174 10.568 28.666 15.902.042.026.084.053.127.078 8.943 5.435 16.558 11.328 22.696 17.582 5.526 5.527 9.591 11.485 12.079 17.708.025.063.052.126.078.188 2.553 6.021 3.847 13.02 3.847 20.798 0 15.106-4.731 26.534-14.464 34.935-2.308 1.991-4.962 3.778-7.89 5.312-4.893 2.563-6.782 8.605-4.221 13.498 2.563 4.893 8.605 6.784 13.498 4.221 4.284-2.243 8.214-4.897 11.681-7.89 14.197-12.255 21.396-29.103 21.396-50.075 0-10.438-1.814-20.028-5.393-28.509-3.502-8.715-9.042-16.899-16.401-24.259z"/><path d="m256.753 420.532h-.008c-5.522 0-9.996 4.478-9.996 10s4.481 10 10.004 10 10-4.478 10-10-4.478-10-10-10z"/></g></g></svg>